<svg width="48" height="48" viewBox="0 0 48 48" fill="none" xmlns="http://www.w3.org/2000/svg">
<path d="M24.0003 3.99902C16.0124 3.99902 9.51379 10.4976 9.51379 18.4854C9.51379 28.3986 22.4777 42.9516 23.0297 43.5662C23.5481 44.1436 24.4533 44.1426 24.9709 43.5662C25.5227 42.9516 38.4867 28.3986 38.4867 18.4854C38.4865 10.4976 31.9881 3.99902 24.0003 3.99902ZM24.0003 25.774C19.9814 25.774 16.7118 22.5044 16.7118 18.4854C16.7118 14.4665 19.9814 11.197 24.0003 11.197C28.0191 11.197 31.2887 14.4666 31.2887 18.4855C31.2887 22.5044 28.0191 25.774 24.0003 25.774Z" fill="#1E6DF0"/>
</svg>
